<?xml version="1.0" encoding="utf-8"?>
<svg version="1.1" xmlns:xlink="http://www.w3.org/1999/xlink" width="63px" height="30px" xmlns="http://www.w3.org/2000/svg">
  <g transform="matrix(1 0 0 1 -676 -34 )">
    <path d="M 14.8986869633296 0  C 6.67041400121949 0  0 6.71575028847968  0 15.000035625693  C 0 23.2843210326235  6.67041400121949 29.9999999302823  14.8986869633296 29.9999999302823  C 15.2386027974316 29.9999999302823  15.575684176099 29.9875863632561  15.9099312378243 30  L 47.0900687621757 30  C 47.4243157546548 29.9875863632561  47.7613972025683 30  48.1013130366704 30  C 56.3296568376614 30  63 23.284321102341  63 15.0000356954105  C 63 6.71575028847968  56.3296568376614 0  48.1013130366704 0  C 47.7609720307909 0  47.4236780662348 0.0125563486682227  47.0890059019783 0  L 15.9109940980218 0  C 15.5763219337652 0.012556278950494  15.238957061082 0  14.8986869633296 0  Z M 46.9077457557448 27.8416767946971  C 39.8634739173052 27.8416767946971  34.1529306293082 22.0923313616111  34.1529306293082 15.000035625693  C 34.1529306293082 7.90773988977462  39.8634739173052 2.15839445668859  46.9077457557448 2.15839445668859  C 53.9520175941845 2.15839445668859  59.6625608821815 7.90773988977462  59.6625608821815 15.000035625693  C 59.6625608821815 22.0923313616111  53.9520175941845 27.8416767946971  46.9077457557448 27.8416767946971  Z " fill-rule="nonzero" fill="#1abc9c" stroke="none" transform="matrix(1 0 0 1 676 34 )" />
  </g>
</svg>