<?xml version="1.0" encoding="utf-8"?>
<svg version="1.1" xmlns:xlink="http://www.w3.org/1999/xlink" width="22px" height="22px" xmlns="http://www.w3.org/2000/svg">
  <g transform="matrix(1 0 0 1 -4 -4 )">
    <path d="M 15 4  C 21.16 4  26 8.84  26 15  C 26 21.16  21.16 26  15 26  C 8.84 26  4 21.16  4 15  C 4 8.84  8.84 4  15 4  Z " fill-rule="nonzero" fill="#ffffff" stroke="none" />
    <path d="M 15 4.5  C 20.88 4.5  25.5 9.12  25.5 15  C 25.5 20.88  20.88 25.5  15 25.5  C 9.12 25.5  4.5 20.88  4.5 15  C 4.5 9.12  9.12 4.5  15 4.5  Z " stroke-width="1" stroke="#ffffff" fill="none" />
  </g>
</svg>