<?xml version="1.0" encoding="utf-8"?>
<svg version="1.1" xmlns:xlink="http://www.w3.org/1999/xlink" width="12px" height="12px" xmlns="http://www.w3.org/2000/svg">
  <g transform="matrix(1 0 0 1 -427 -1016 )">
    <path d="M 433 1016  C 436.36 1016  439 1018.64  439 1022  C 439 1025.36  436.36 1028  433 1028  C 429.64 1028  427 1025.36  427 1022  C 427 1018.64  429.64 1016  433 1016  Z " fill-rule="nonzero" fill="#ffffff" stroke="none" />
    <path d="M 433 1016.5  C 436.08 1016.5  438.5 1018.92  438.5 1022  C 438.5 1025.08  436.08 1027.5  433 1027.5  C 429.92 1027.5  427.5 1025.08  427.5 1022  C 427.5 1018.92  429.92 1016.5  433 1016.5  Z " stroke-width="1" stroke="#dcdfe6" fill="none" />
  </g>
</svg>