<?xml version="1.0" encoding="utf-8"?>
<svg version="1.1" xmlns:xlink="http://www.w3.org/1999/xlink" width="12px" height="12px" xmlns="http://www.w3.org/2000/svg">
  <g transform="matrix(1 0 0 1 -427 -1016 )">
    <path d="M 433 1018  C 435.24 1018  437 1019.76  437 1022  C 437 1024.24  435.24 1026  433 1026  C 430.76 1026  429 1024.24  429 1022  C 429 1019.76  430.76 1018  433 1018  Z " fill-rule="nonzero" fill="#ffffff" stroke="none" />
    <path d="M 433 1017.5  C 435.52 1017.5  437.5 1019.48  437.5 1022  C 437.5 1024.52  435.52 1026.5  433 1026.5  C 430.48 1026.5  428.5 1024.52  428.5 1022  C 428.5 1019.48  430.48 1017.5  433 1017.5  Z " stroke-width="3" stroke="#409eff" fill="none" />
  </g>
</svg>