<?xml version="1.0" encoding="utf-8"?>
<svg version="1.1" xmlns:xlink="http://www.w3.org/1999/xlink" width="10px" height="6px" xmlns="http://www.w3.org/2000/svg">
  <g transform="matrix(1 0 0 1 -642 -736 )">
    <path d="M 9.72926829268295 0.0714634146340813  L 9.9019512195122 0.243902439024396  C 9.99716632642267 0.339146305240547  9.99716632642267 0.493536621588873  9.9019512195122 0.588780487805025  L 5.15926829268292 5.3317073170731  C 5.11351993728235 5.37750659586118  5.05144128002416 5.40324064790639  4.98670731707315 5.40324064790639  C 4.9219733541222 5.40324064790639  4.85989469686396 5.37750659586118  4.81414634146341 5.3317073170731  L 0.0714634146341666 0.588780487805025  C -0.0237516922763064 0.493536621588873  -0.0237516922763064 0.339146305240547  0.0714634146341666 0.243902439024396  L 0.243902439024396 0.0714634146340813  C 0.339146305240433 -0.0237516922761642  0.493536621588845 -0.0237516922761642  0.588780487804883 0.0714634146340813  L 4.98658536585364 4.46926829268295  L 9.38463414634148 0.0714634146340813  C 9.47987801255752 -0.0237516922761642  9.6342683289059 -0.0237516922761642  9.72951219512194 0.0714634146340813  Z " fill-rule="nonzero" fill="#909399" stroke="none" fill-opacity="0.647058823529412" transform="matrix(1 0 0 1 642 736 )" />
  </g>
</svg>