<?xml version="1.0" encoding="utf-8"?>
<svg version="1.1" xmlns:xlink="http://www.w3.org/1999/xlink" width="16px" height="16px" xmlns="http://www.w3.org/2000/svg">
  <g transform="matrix(1 0 0 1 -558 -248 )">
    <path d="M 9.23958333333331 4.09375  C 9.30208333333331 4.15625  9.33333333333331 4.23611111111109  9.33333333333331 4.33333333333337  L 9.33333333333331 9  C 9.33333333333331 9.09722222222217  9.30208333333331 9.17708333333337  9.23958333333331 9.23958333333337  C 9.17708333333331 9.30208333333337  9.09722222222229 9.33333333333337  9 9.33333333333337  L 5.66666666666669 9.33333333333337  C 5.56944444444446 9.33333333333337  5.48958333333331 9.30208333333337  5.42708333333331 9.23958333333337  C 5.36458333333331 9.17708333333337  5.33333333333331 9.09722222222217  5.33333333333331 9  L 5.33333333333331 8.33333333333337  C 5.33333333333331 8.23611111111109  5.36458333333331 8.15625  5.42708333333331 8.09375  C 5.48958333333331 8.03125  5.56944444444446 8  5.66666666666669 8  L 8 8  L 8 4.33333333333337  C 8 4.23611111111109  8.03125 4.15625  8.09375 4.09375  C 8.15625 4.03125  8.23611111111114 4  8.33333333333331 4  L 9 4  C 9.09722222222229 4  9.17708333333331 4.03125  9.23958333333331 4.09375  Z M 12.90625 10.84375  C 13.4131944444445 9.97569444444446  13.6666666666667 9.02777777777783  13.6666666666667 8  C 13.6666666666667 6.97222222222217  13.4131944444445 6.02430555555554  12.90625 5.15625  C 12.3993055555555 4.28819444444446  11.7118055555555 3.60069444444446  10.84375 3.09375  C 9.97569444444446 2.58680555555554  9.02777777777771 2.33333333333337  8 2.33333333333337  C 6.97222222222229 2.33333333333337  6.02430555555554 2.58680555555554  5.15625 3.09375  C 4.28819444444446 3.60069444444446  3.60069444444446 4.28819444444446  3.09375 5.15625  C 2.58680555555554 6.02430555555554  2.33333333333331 6.97222222222217  2.33333333333331 8  C 2.33333333333331 9.02777777777783  2.58680555555554 9.97569444444446  3.09375 10.84375  C 3.60069444444446 11.7118055555555  4.28819444444446 12.3993055555555  5.15625 12.90625  C 6.02430555555554 13.4131944444445  6.97222222222229 13.6666666666666  8 13.6666666666666  C 9.02777777777771 13.6666666666666  9.97569444444446 13.4131944444445  10.84375 12.90625  C 11.7118055555555 12.3993055555555  12.3993055555555 11.7118055555555  12.90625 10.84375  Z M 14.9270833333333 3.984375  C 15.6423611111111 5.21006944444446  16 6.54861111111109  16 8  C 16 9.45138888888891  15.6423611111111 10.7899305555555  14.9270833333333 12.015625  C 14.2118055555555 13.2413194444445  13.2413194444445 14.2118055555555  12.015625 14.9270833333334  C 10.7899305555555 15.6423611111111  9.45138888888886 16  8 16  C 6.54861111111114 16  5.21006944444446 15.6423611111111  3.984375 14.9270833333334  C 2.75868055555554 14.2118055555555  1.78819444444446 13.2413194444445  1.07291666666669 12.015625  C 0.357638888888857 10.7899305555555  0 9.45138888888891  0 8  C 0 6.54861111111109  0.357638888888857 5.21006944444446  1.07291666666669 3.984375  C 1.78819444444446 2.75868055555554  2.75868055555554 1.78819444444446  3.984375 1.07291666666663  C 5.21006944444446 0.357638888888914  6.54861111111114 0  8 0  C 9.45138888888886 0  10.7899305555555 0.357638888888914  12.015625 1.07291666666663  C 13.2413194444445 1.78819444444446  14.2118055555555 2.75868055555554  14.9270833333333 3.984375  Z " fill-rule="nonzero" fill="#999999" stroke="none" transform="matrix(1 0 0 1 558 248 )" />
  </g>
</svg>