<?xml version="1.0" encoding="utf-8"?>
<svg version="1.1" xmlns:xlink="http://www.w3.org/1999/xlink" width="7px" height="5px" xmlns="http://www.w3.org/2000/svg">
  <g transform="matrix(1 0 0 1 -863 -253 )">
    <path d="M 6.81048780487806 0.0595528455284011  L 6.93136585365854 0.20325203252033  C 6.99801642849587 0.282621921033789  6.99801642849587 0.411280517990728  6.93136585365854 0.490650406504187  L 3.61148780487805 4.44308943089425  C 3.57946395609764 4.48125549655098  3.53600889601692 4.50270053992199  3.49069512195121 4.50270053992199  C 3.44538134788554 4.50270053992199  3.40192628780477 4.48125549655098  3.36990243902439 4.44308943089425  L 0.0500243902439166 0.490650406504187  C -0.0166261845934144 0.411280517990728  -0.0166261845934144 0.282621921033789  0.0500243902439166 0.20325203252033  L 0.170731707317077 0.0595528455284011  C 0.237402413668303 -0.0197930768968035  0.345475635112192 -0.0197930768968035  0.412146341463418 0.0595528455284011  L 3.49060975609755 3.72439024390246  L 6.56924390243904 0.0595528455284011  C 6.63591460879026 -0.0197930768968035  6.74398783023413 -0.0197930768968035  6.81065853658536 0.0595528455284011  Z " fill-rule="nonzero" fill="#909399" stroke="none" fill-opacity="0.647058823529412" transform="matrix(1 0 0 1 863 253 )" />
  </g>
</svg>