<?xml version="1.0" encoding="utf-8"?>
<svg version="1.1" xmlns:xlink="http://www.w3.org/1999/xlink" width="15px" height="15px" xmlns="http://www.w3.org/2000/svg">
  <g transform="matrix(1 0 0 1 -30 -1168 )">
    <path d="M 37.5 1168  C 41.7 1168  45 1171.3  45 1175.5  C 45 1179.7  41.7 1183  37.5 1183  C 33.3 1183  30 1179.7  30 1175.5  C 30 1171.3  33.3 1168  37.5 1168  Z " fill-rule="nonzero" fill="#f01111" stroke="none" />
    <path d="M 37.5 1168.5  C 41.42 1168.5  44.5 1171.58  44.5 1175.5  C 44.5 1179.42  41.42 1182.5  37.5 1182.5  C 33.58 1182.5  30.5 1179.42  30.5 1175.5  C 30.5 1171.58  33.58 1168.5  37.5 1168.5  Z " stroke-width="1" stroke="#f01111" fill="none" />
  </g>
</svg>