<?xml version="1.0" encoding="utf-8"?>
<svg version="1.1" xmlns:xlink="http://www.w3.org/1999/xlink" width="23px" height="30px" xmlns="http://www.w3.org/2000/svg">
  <g transform="matrix(1 0 0 1 -120 -601 )">
    <path d="M 22.4010416666667 8.57142857142857  L 15.3333333333333 8.57142857142857  L 15.3333333333333 0.669642857142858  C 15.5529513888889 0.825892857142856  15.7326388888889 0.982142857142854  15.8723958333333 1.13839285714286  L 21.9817708333333 7.96875  C 22.1215277777778 8.125  22.2612847222222 8.32589285714286  22.4010416666667 8.57142857142857  Z M 13.4166666666667 0  L 13.4166666666667 9.10714285714286  C 13.4166666666667 9.55357142857143  13.5564236111111 9.93303571428571  13.8359375 10.2455357142857  C 14.1154513888889 10.5580357142857  14.4548611111111 10.7142857142857  14.8541666666667 10.7142857142857  L 23 10.7142857142857  L 23 28.3928571428571  C 23 28.8392857142857  22.8602430555556 29.21875  22.5807291666667 29.53125  C 22.3012152777778 29.84375  21.9618055555556 30  21.5625 30  L 1.4375 30  C 1.03819444444444 30  0.698784722222222 29.84375  0.419270833333333 29.53125  C 0.139756944444444 29.21875  0 28.8392857142857  0 28.3928571428571  L 0 1.60714285714286  C 0 1.16071428571428  0.139756944444444 0.781249999999999  0.419270833333333 0.46875  C 0.698784722222222 0.156250000000001  1.03819444444444 0  1.4375 0  L 13.4166666666667 0  Z " fill-rule="nonzero" fill="#000000" stroke="none" transform="matrix(1 0 0 1 120 601 )" />
  </g>
</svg>