<?xml version="1.0" encoding="utf-8"?>
<svg version="1.1" xmlns:xlink="http://www.w3.org/1999/xlink" width="40px" height="30px" xmlns="http://www.w3.org/2000/svg">
  <g transform="matrix(1 0 0 1 -173 -601 )">
    <path d="M 12.1666666666667 6.09375  C 12.9444444444444 6.82291666666666  13.3333333333333 7.70833333333333  13.3333333333333 8.75  C 13.3333333333333 9.79166666666666  12.9444444444444 10.6770833333333  12.1666666666667 11.40625  C 11.3888888888889 12.1354166666667  10.4444444444444 12.5  9.33333333333333 12.5  C 8.22222222222222 12.5  7.27777777777778 12.1354166666667  6.5 11.40625  C 5.72222222222222 10.6770833333333  5.33333333333333 9.79166666666666  5.33333333333333 8.75  C 5.33333333333333 7.70833333333333  5.72222222222222 6.82291666666666  6.5 6.09375  C 7.27777777777778 5.36458333333333  8.22222222222222 5  9.33333333333333 5  C 10.4444444444444 5  11.3888888888889 5.36458333333333  12.1666666666667 6.09375  Z M 26 8.125  L 34.6666666666667 16.25  L 34.6666666666667 25  L 5.33333333333333 25  L 5.33333333333333 21.25  L 12 15  L 15.3333333333333 18.125  L 26 8.125  Z M 37.1354166666667 2.685546875  C 37.0034722222222 2.56184895833333  36.8472222222222 2.5  36.6666666666667 3  L 3.33333333333333 3  C 3.15277777777778 2.5  2.99652777777778 2.56184895833333  2.86458333333333 2.685546875  C 2.73263888888889 2.80924479166666  2.66666666666667 2.95572916666666  3 3.125  L 3 26.875  C 2.66666666666667 27.0442708333333  2.73263888888889 27.1907552083333  2.86458333333333 27.314453125  C 2.99652777777778 27.4381510416667  3.15277777777778 27.5  3.33333333333333 27  L 36.6666666666667 27  C 36.8472222222222 27.5  37.0034722222222 27.4381510416667  37.1354166666667 27.314453125  C 37.2673611111111 27.1907552083333  37.3333333333333 27.0442708333333  37 26.875  L 37 3.125  C 37.3333333333333 2.95572916666666  37.2673611111111 2.80924479166666  37.1354166666667 2.685546875  Z M 39.0208333333333 0.917968750000001  C 39.6736111111111 1.52994791666667  40 2.265625  40 3.125  L 40 26.875  C 40 27.734375  39.6736111111111 28.4700520833333  39.0208333333333 29.08203125  C 38.3680555555556 29.6940104166667  37.5833333333333 30  36.6666666666667 30  L 3.33333333333333 30  C 2.41666666666667 30  1.63194444444444 29.6940104166667  0.979166666666667 29.08203125  C 0.326388888888889 28.4700520833333  0 27.734375  0 26.875  L 0 3.125  C 0 2.265625  0.326388888888889 1.52994791666667  0.979166666666667 0.917968750000001  C 1.63194444444444 0.30598958333333  2.41666666666667 0  3.33333333333333 0  L 36.6666666666667 0  C 37.5833333333333 0  38.3680555555556 0.30598958333333  39.0208333333333 0.917968750000001  Z " fill-rule="nonzero" fill="#000000" stroke="none" transform="matrix(1 0 0 1 173 601 )" />
  </g>
</svg>