<?xml version="1.0" encoding="utf-8"?>
<svg version="1.1" xmlns:xlink="http://www.w3.org/1999/xlink" width="50px" height="50px" xmlns="http://www.w3.org/2000/svg">
  <g transform="matrix(1 0 0 1 -932 -87 )">
    <path d="M 957 90  C 969.32 90  979 99.68  979 112  C 979 124.32  969.32 134  957 134  C 944.68 134  935 124.32  935 112  C 935 99.68  944.68 90  957 90  Z " fill-rule="nonzero" fill="#f9f9f9" stroke="none" />
    <path d="M 957 89  C 969.88 89  980 99.12  980 112  C 980 124.88  969.88 135  957 135  C 944.12 135  934 124.88  934 112  C 934 99.12  944.12 89  957 89  Z " stroke-width="4" stroke="#cccccc" fill="none" />
  </g>
</svg>