<?xml version="1.0" standalone="no"?><!DOCTYPE svg PUBLIC "-//W3C//DTD SVG 1.1//EN" "http://www.w3.org/Graphics/SVG/1.1/DTD/svg11.dtd"><svg t="1586330723734" class="icon" viewBox="0 0 1024 1024" version="1.1" xmlns="http://www.w3.org/2000/svg" p-id="8140" xmlns:xlink="http://www.w3.org/1999/xlink" width="48" height="48"><defs><style type="text/css"></style></defs><path d="M745.611636 683.566545l181.643637-181.59709a34.839273 34.839273 0 0 0-1.978182-51.2c-83.735273-71.842909-198.749091-96.325818-304.360727-65.815273l-189.975273-148.526546a191.255273 191.255273 0 0 0-55.202909-156.392727 34.909091 34.909091 0 0 0-49.361455 0L103.330909 303.080727a34.909091 34.909091 0 0 0 0 49.384728 191.069091 191.069091 0 0 0 156.392727 55.202909l143.173819 183.156363c-38.097455 109.242182-15.290182 233.425455 60.532363 321.792a34.909091 34.909091 0 0 0 51.2 1.954909l181.597091-181.643636 198.376727 198.376727c6.818909 6.795636 15.755636 10.193455 24.669091 10.193455a34.909091 34.909091 0 0 0 24.669091-59.578182l-198.353454-198.353455z" fill="#707070" p-id="8141"></path></svg>