<?xml version="1.0" standalone="no"?><!DOCTYPE svg PUBLIC "-//W3C//DTD SVG 1.1//EN" "http://www.w3.org/Graphics/SVG/1.1/DTD/svg11.dtd"><svg t="1586330716769" class="icon" viewBox="0 0 1024 1024" version="1.1" xmlns="http://www.w3.org/2000/svg" p-id="7858" xmlns:xlink="http://www.w3.org/1999/xlink" width="48" height="48"><defs><style type="text/css"></style></defs><path d="M493.917091 836.514909c-44.125091-70.516364-52.130909-160.279273-19.2-237.986909a34.862545 34.862545 0 0 0-4.608-35.118545l-168.122182-215.016728a34.955636 34.955636 0 0 0-35.234909-12.544 122.786909 122.786909 0 0 1-85.829818-11.636363l166.562909-166.539637a122.600727 122.600727 0 0 1 11.636364 85.829818 34.909091 34.909091 0 0 0 12.544 35.211637l220.76509 172.613818c9.472 7.377455 21.992727 9.402182 33.163637 5.399273a258.816 258.816 0 0 1 223.604363 24.506182l-177.617454 177.640727h-0.046546v0.046545l-177.640727 177.594182z m450.024727 45.405091l-198.376727-198.353455 181.666909-181.59709a34.909091 34.909091 0 0 0-1.954909-51.2c-83.735273-71.842909-198.795636-96.325818-304.384-65.815273l-189.952-148.526546a191.325091 191.325091 0 0 0-55.202909-156.392727 34.909091 34.909091 0 0 0-49.361455 0L103.330909 303.080727a34.909091 34.909091 0 0 0 0 49.384728 191.185455 191.185455 0 0 0 156.392727 55.202909l143.173819 183.156363c-38.120727 109.242182-15.290182 233.425455 60.50909 321.815273a35.141818 35.141818 0 0 0 25.181091 12.125091h1.349819c9.262545 0 18.129455-3.630545 24.66909-10.193455l181.620364-181.643636 198.376727 198.376727a34.816 34.816 0 0 0 49.338182 0 34.909091 34.909091 0 0 0 0-49.384727z" fill="#bfbfbf" p-id="7859"></path></svg>