<?xml version="1.0" encoding="utf-8"?>
<svg version="1.1" xmlns:xlink="http://www.w3.org/1999/xlink" width="16px" height="16px" xmlns="http://www.w3.org/2000/svg">
  <g transform="matrix(1 0 0 1 -116 -249 )">
    <path d="M 15.9914642857143 7.97736283185841  C 15.9914642857143 12.347982300885  12.4165714285714 15.8913274336283  8.00685714285714 15.8913274336283  C 3.59698214285714 15.8913274336283  0.022232142857149 12.3479646017699  0.022232142857149 7.97734513274335  C 0.022232142857149 3.60667256637169  3.59698214285714 0.0633982300884952  8.00685714285714 0.0633982300884952  C 12.4165714285714 0.0633982300884952  15.9914642857143 3.60667256637169  15.9914642857143 7.97736283185841  Z M 15.0866071428571 7.97736283185841  C 15.0866071428571 4.10192920353981  11.9168928571428 0.960230088495564  8.00685714285714 0.960230088495564  C 4.09682142857145 0.960230088495564  0.927071428571423 4.10185840707965  0.927071428571423 7.97736283185841  C 0.927071428571423 11.852796460177  4.09682142857145 14.9944778761062  8.00685714285714 14.9944778761062  C 11.9168928571428 14.9944778761062  15.0866071428571 11.852796460177  15.0866071428571 7.97736283185841  Z M 11.8700714285714 9.34044247787611  C 12.1060892857143 9.44989380530973  12.2073035714286 9.72769911504426  12.096875 9.96164601769911  C 11.9869107142857 10.1951504424779  11.7061607142857 10.2954513274336  11.4705714285714 10.1860353982301  L 7.71850000000001 8.94277876106196  C 7.53903571428572 8.8597168141593  7.43912499999999 8.67906194690266  7.44921428571428 8.49438938053098  C 7.44694642857144 8.47569911504425  7.43828571428571 8.46017699115043  7.43828571428571 8.44093805309734  L 7.43828571428571 3.30368141592919  C 7.43828571428571 3.04552212389382  7.649 2.83660176991151  7.90946428571431 2.83660176991151  C 8.16991071428572 2.83660176991151  8.38062500000001 3.04552212389382  8.38062500000001 3.30368141592919  L 8.38062500000001 8.18380530973451  L 11.8700714285714 9.34044247787611  Z " fill-rule="nonzero" fill="#d7d7d7" stroke="none" transform="matrix(1 0 0 1 116 249 )" />
  </g>
</svg>